<?xml version="1.0" encoding="UTF-8" standalone="no"?>
<!DOCTYPE svg PUBLIC "-//W3C//DTD SVG 20010904//EN"
              "http://www.w3.org/TR/2001/REC-SVG-20010904/DTD/svg10.dtd">

<svg xmlns="http://www.w3.org/2000/svg"
     width="3.33333in" height="0.783333in"
     viewBox="0 0 1000 235">
  <path id="Selection"
        fill="none" stroke="black" stroke-width="1"
        d="M 92.00,175.00
           C 84.50,189.19 74.67,191.17 60.00,191.00
             43.57,190.80 28.76,180.52 20.09,167.00
             3.91,141.78 4.13,96.39 21.93,72.00
             27.60,64.22 33.50,59.94 42.00,55.76
             49.23,52.19 56.91,50.10 65.00,50.00
             83.66,49.79 87.51,51.04 103.00,62.00
             106.38,53.36 110.13,51.03 119.00,51.00
             119.00,51.00 119.00,89.00 119.00,89.00
             116.66,89.00 112.42,89.30 110.50,87.98
             110.50,87.98 102.11,73.00 102.11,73.00
             95.01,62.37 82.61,52.42 69.00,56.64
             57.70,60.15 50.70,73.36 47.74,84.00
             43.43,99.57 43.82,115.99 44.00,132.00
             44.16,145.33 47.08,163.39 55.52,174.00
             58.46,177.70 62.32,181.22 67.00,182.44
             78.66,185.50 88.85,173.95 89.00,163.00
             89.00,163.00 89.00,132.00 89.00,132.00
             88.96,129.81 89.06,127.41 87.40,125.72
             83.54,121.79 78.30,125.53 77.00,118.00
             77.00,118.00 134.00,118.00 134.00,118.00
             132.63,125.80 128.29,121.75 124.60,125.58
             122.67,127.59 123.01,131.40 123.00,134.00
             123.00,134.00 123.00,190.00 123.00,190.00
             107.03,190.00 100.88,189.73 92.00,175.00 Z
           M 264.00,51.00
           C 264.00,51.00 290.00,51.00 290.00,51.00
             304.29,51.02 308.83,56.98 309.00,71.00
             309.00,71.00 309.00,184.00 309.00,184.00
             313.95,184.70 319.19,184.78 321.00,190.00
             321.00,190.00 264.00,190.00 264.00,190.00
             265.81,184.78 271.05,184.70 276.00,184.00
             276.00,184.00 276.00,88.00 276.00,88.00
             276.00,88.00 276.00,65.00 276.00,65.00
             276.00,65.00 274.40,58.56 274.40,58.56
             274.40,58.56 264.00,55.00 264.00,55.00
             264.00,55.00 264.00,51.00 264.00,51.00 Z
           M 636.00,51.00
           C 636.00,51.00 661.00,51.00 661.00,51.00
             674.93,51.02 679.83,55.81 680.00,70.00
             680.00,70.00 680.00,182.00 680.00,182.00
             686.08,182.94 691.45,183.05 692.00,190.00
             682.62,190.00 666.65,191.77 659.00,186.35
             654.46,183.14 652.68,179.63 650.00,175.00
             646.85,183.04 638.52,189.18 630.00,190.83
             630.00,190.83 619.00,190.83 619.00,190.83
             615.57,190.96 613.33,190.82 610.00,189.78
             603.27,187.69 596.93,183.43 592.47,178.00
             582.72,166.13 580.35,148.79 581.83,134.00
             582.48,127.49 582.81,122.33 585.09,116.00
             590.64,100.59 604.57,90.20 621.00,90.00
             634.05,89.85 635.26,89.83 647.00,96.00
             647.00,96.00 647.00,70.00 647.00,70.00
             647.00,67.25 647.38,61.50 645.98,59.28
             644.16,56.38 639.12,55.63 636.00,55.00
             636.00,55.00 636.00,51.00 636.00,51.00 Z
           M 823.00,51.70
           C 827.10,50.77 832.11,50.41 835.91,52.57
             846.79,58.77 845.29,79.97 827.00,78.96
             812.46,78.15 809.14,58.10 823.00,51.70 Z
           M 209.00,135.00
           C 209.00,124.11 210.26,109.88 202.66,101.04
             198.53,96.23 184.51,90.86 180.02,97.43
             178.87,99.12 179.01,102.02 179.00,104.00
             178.98,107.40 179.69,120.24 177.98,122.40
             176.79,123.90 174.73,123.91 173.00,123.98
             169.03,124.15 164.59,124.04 161.18,121.77
             151.85,115.56 154.55,103.13 162.17,96.93
             168.06,92.13 177.54,90.09 185.00,90.00
             185.00,90.00 199.00,90.00 199.00,90.00
             214.90,90.19 232.17,98.95 238.66,114.00
             242.61,123.13 242.00,132.35 242.00,142.00
             242.00,142.00 242.00,182.00 242.00,182.00
             248.08,182.94 253.45,183.05 254.00,190.00
             244.72,190.00 228.53,191.76 221.02,186.35
             216.92,183.41 214.87,178.99 212.00,175.00
             208.31,182.16 203.60,186.62 196.00,189.53
             191.01,191.45 186.24,191.01 181.00,191.00
             171.15,190.98 160.24,188.79 153.52,180.91
             146.24,172.38 146.02,162.22 149.36,152.00
             150.43,148.72 152.21,143.91 155.21,141.98
             157.93,140.24 173.94,137.70 178.00,137.13
             193.20,135.00 193.77,135.00 209.00,135.00 Z
           M 395.00,135.00
           C 395.00,124.11 396.26,109.88 388.66,101.04
             384.53,96.23 370.51,90.86 366.02,97.43
             364.87,99.12 365.01,102.02 365.00,104.00
             364.98,107.40 365.69,120.24 363.98,122.40
             362.79,123.90 360.73,123.91 359.00,123.98
             355.03,124.15 350.59,124.04 347.18,121.77
             337.85,115.56 340.55,103.13 348.17,96.93
             354.06,92.13 363.54,90.09 371.00,90.00
             371.00,90.00 385.00,90.00 385.00,90.00
             400.90,90.19 418.17,98.95 424.66,114.00
             428.61,123.13 428.00,132.35 428.00,142.00
             428.00,142.00 428.00,182.00 428.00,182.00
             434.08,182.94 439.45,183.05 440.00,190.00
             430.72,190.00 414.53,191.76 407.02,186.35
             402.92,183.41 400.87,178.99 398.00,175.00
             394.31,182.16 389.60,186.62 382.00,189.53
             377.01,191.45 372.24,191.01 367.00,191.00
             357.15,190.98 346.24,188.79 339.52,180.91
             332.24,172.38 332.02,162.22 335.36,152.00
             336.43,148.72 338.21,143.91 341.21,141.98
             343.93,140.24 359.94,137.70 364.00,137.13
             379.20,135.00 379.77,135.00 395.00,135.00 Z
           M 492.00,107.00
           C 501.50,82.76 538.27,85.96 552.32,104.00
             557.97,111.26 558.99,118.07 559.00,127.00
             559.00,127.00 559.00,175.00 559.00,175.00
             559.01,177.56 558.65,181.33 560.60,183.27
             564.21,186.86 568.67,183.26 571.00,190.00
             571.00,190.00 543.00,190.00 543.00,190.00
             537.75,189.93 533.16,189.21 529.65,184.81
             526.39,180.73 526.02,174.99 526.00,170.00
             526.00,170.00 526.00,120.00 526.00,120.00
             525.89,111.33 521.27,96.54 510.00,98.24
             504.02,99.14 497.25,107.40 495.64,113.00
             494.89,115.57 495.00,118.35 495.00,121.00
             495.00,121.00 495.00,175.00 495.00,175.00
             495.01,177.56 494.65,181.33 496.60,183.27
             500.21,186.86 504.67,183.26 507.00,190.00
             507.00,190.00 450.00,190.00 450.00,190.00
             451.81,184.78 457.05,184.70 462.00,184.00
             462.00,184.00 462.00,109.00 462.00,109.00
             461.99,106.33 462.35,102.77 460.40,100.70
             456.13,96.14 450.69,99.72 450.00,91.00
             460.10,91.00 475.90,88.88 483.91,95.53
             487.59,98.59 489.66,102.93 492.00,107.00 Z
           M 911.00,107.00
           C 920.50,82.76 957.27,85.96 971.32,104.00
             976.97,111.26 977.99,118.07 978.00,127.00
             978.00,127.00 978.00,175.00 978.00,175.00
             978.01,177.56 977.65,181.33 979.60,183.27
             983.21,186.86 987.67,183.26 990.00,190.00
             990.00,190.00 962.00,190.00 962.00,190.00
             956.75,189.93 952.16,189.21 948.65,184.81
             945.39,180.73 945.02,174.99 945.00,170.00
             945.00,170.00 945.00,120.00 945.00,120.00
             944.89,111.33 940.27,96.54 929.00,98.24
             923.02,99.14 916.25,107.40 914.64,113.00
             913.89,115.57 914.00,118.35 914.00,121.00
             914.00,121.00 914.00,175.00 914.00,175.00
             914.01,177.56 913.65,181.33 915.60,183.27
             919.21,186.86 923.67,183.26 926.00,190.00
             926.00,190.00 869.00,190.00 869.00,190.00
             870.81,184.78 876.05,184.70 881.00,184.00
             881.00,184.00 881.00,109.00 881.00,109.00
             880.99,106.33 881.35,102.77 879.40,100.70
             875.13,96.14 869.69,99.72 869.00,91.00
             879.10,91.00 894.90,88.88 902.91,95.53
             906.59,98.59 908.66,102.93 911.00,107.00 Z
           M 703.00,91.00
           C 712.38,91.00 728.35,89.23 736.00,94.65
             740.54,97.86 742.32,101.37 745.00,106.00
             750.84,93.67 763.66,90.85 776.00,91.00
             781.92,91.08 787.35,92.14 791.20,97.10
             796.82,104.35 796.71,117.97 787.98,122.86
             782.75,125.80 776.60,125.00 771.00,124.00
             771.00,124.00 771.00,97.00 771.00,97.00
             762.46,97.42 751.84,103.86 748.74,112.00
             747.87,114.28 748.00,117.55 748.00,120.00
             748.00,120.00 748.00,184.00 748.00,184.00
             752.95,184.70 758.19,184.78 760.00,190.00
             760.00,190.00 703.00,190.00 703.00,190.00
             704.81,184.78 710.05,184.70 715.00,184.00
             715.00,184.00 715.00,98.00 715.00,98.00
             709.63,97.24 704.05,97.11 703.00,91.00 Z
           M 802.00,91.00
           C 802.00,91.00 828.00,91.00 828.00,91.00
             843.86,91.03 846.98,98.38 847.00,113.00
             847.00,113.00 847.00,184.00 847.00,184.00
             851.95,184.70 857.19,184.78 859.00,190.00
             859.00,190.00 802.00,190.00 802.00,190.00
             803.81,184.78 809.05,184.70 814.00,184.00
             814.00,184.00 814.00,108.00 814.00,108.00
             813.98,98.98 813.64,98.34 802.00,96.00
             802.00,96.00 802.00,91.00 802.00,91.00 Z
           M 629.00,97.43
           C 621.46,100.42 618.97,107.54 617.54,115.00
             615.33,127.57 615.18,152.45 617.54,165.00
             618.95,173.21 623.05,185.95 634.00,182.71
             643.73,179.84 646.99,171.16 647.00,162.00
             647.00,162.00 647.00,111.00 647.00,111.00
             647.00,109.03 647.12,105.88 646.40,104.09
             643.83,97.67 634.92,96.53 629.00,97.43 Z
           M 209.00,139.00
           C 203.45,140.35 187.91,139.39 184.85,142.60
             183.18,144.35 182.27,149.57 181.80,152.00
             180.28,159.98 179.65,176.17 187.10,181.40
             195.25,187.11 205.76,177.54 208.30,170.00
             209.13,167.55 209.00,164.57 209.00,162.00
             209.00,162.00 209.00,139.00 209.00,139.00 Z
           M 395.00,139.00
           C 389.45,140.35 373.91,139.39 370.85,142.60
             369.18,144.35 368.27,149.57 367.80,152.00
             366.28,159.98 365.65,176.17 373.10,181.40
             381.25,187.11 391.76,177.54 394.30,170.00
             395.13,167.55 395.00,164.57 395.00,162.00
             395.00,162.00 395.00,139.00 395.00,139.00 Z" />
</svg>
