<?xml version="1.0" encoding="UTF-8" standalone="no"?>
<!DOCTYPE svg PUBLIC "-//W3C//DTD SVG 20010904//EN"
              "http://www.w3.org/TR/2001/REC-SVG-20010904/DTD/svg10.dtd">

<svg xmlns="http://www.w3.org/2000/svg"
     width="3.33333in" height="1in"
     viewBox="0 0 1000 300">
  <path id="Selection"
        fill="none" stroke="black" stroke-width="1"
        d="M 2.00,102.00
           C 2.00,102.00 29.00,102.00 29.00,102.00
             46.15,102.21 51.18,113.41 57.30,127.00
             57.30,127.00 89.00,198.00 89.00,198.00
             89.00,198.00 98.58,170.00 98.58,170.00
             98.58,170.00 120.00,111.00 120.00,111.00
             120.00,111.00 106.99,105.31 106.99,105.31
             106.99,105.31 106.00,102.00 106.00,102.00
             106.00,102.00 143.00,102.00 143.00,102.00
             141.77,109.18 134.51,107.72 129.27,111.27
             126.59,113.10 125.54,117.05 124.42,120.00
             124.42,120.00 97.58,193.00 97.58,193.00
             97.58,193.00 79.00,244.00 79.00,244.00
             79.00,244.00 71.65,243.01 71.65,243.01
             71.65,243.01 67.23,235.00 67.23,235.00
             67.23,235.00 57.58,213.00 57.58,213.00
             57.58,213.00 27.14,144.00 27.14,144.00
             27.14,144.00 12.00,108.00 12.00,108.00
             12.00,108.00 2.00,106.00 2.00,106.00
             2.00,106.00 2.00,102.00 2.00,102.00 Z
           M 258.00,102.00
           C 258.00,102.00 292.00,102.65 292.00,102.65
             296.01,103.91 299.41,107.12 300.99,111.00
             302.15,113.85 302.00,116.98 302.00,120.00
             302.00,120.00 302.00,236.00 302.00,236.00
             302.00,236.00 314.00,238.00 314.00,238.00
             314.00,238.00 314.00,242.00 314.00,242.00
             314.00,242.00 258.00,242.00 258.00,242.00
             258.00,242.00 258.00,238.00 258.00,238.00
             258.00,238.00 270.00,236.00 270.00,236.00
             270.00,236.00 270.00,108.00 270.00,108.00
             270.00,108.00 258.00,106.00 258.00,106.00
             258.00,106.00 258.00,102.00 258.00,102.00 Z
           M 681.00,102.74
           C 686.35,101.44 692.59,101.26 696.89,105.23
             703.83,111.61 702.31,125.69 693.00,129.26
             691.18,129.96 688.93,129.99 687.00,129.99
             670.75,129.99 667.71,109.74 681.00,102.74 Z
           M 580.00,142.00
           C 580.00,137.84 579.68,126.35 580.56,123.00
             584.26,108.87 600.88,112.00 612.00,112.00
             612.00,112.00 612.00,142.00 612.00,142.00
             612.00,142.00 640.00,142.00 640.00,142.00
             640.00,142.00 640.00,147.00 640.00,147.00
             640.00,147.00 612.00,147.00 612.00,147.00
             612.00,147.00 613.09,218.00 613.09,218.00
             613.68,226.46 617.65,237.66 628.00,236.88
             634.91,236.36 640.18,230.13 642.44,224.00
             645.39,216.03 641.70,212.69 650.00,212.00
             650.00,221.09 649.58,228.91 642.82,235.90
             635.50,243.45 627.61,243.11 618.00,243.00
             606.33,242.86 594.29,238.30 586.90,228.96
             578.39,218.21 580.00,209.70 580.00,197.00
             580.00,197.00 580.00,147.00 580.00,147.00
             580.00,147.00 566.00,147.00 566.00,147.00
             566.00,147.00 566.00,142.00 566.00,142.00
             566.00,142.00 580.00,142.00 580.00,142.00 Z
           M 170.00,146.78
           C 170.00,146.78 170.00,167.00 170.00,167.00
             170.00,168.94 170.25,172.72 169.01,174.26
             167.43,176.21 163.27,176.07 161.00,175.91
             152.95,175.35 147.48,171.46 147.04,163.00
             146.39,150.39 155.88,144.61 167.00,142.21
             171.68,141.20 173.23,141.02 178.00,141.00
             194.76,140.92 208.22,140.78 221.96,152.47
             234.90,163.48 234.00,175.84 234.00,191.00
             234.00,191.00 234.00,234.00 234.00,234.00
             240.14,234.55 245.44,235.00 246.00,242.00
             236.45,242.00 220.81,243.91 213.04,238.20
             209.08,235.29 206.84,230.89 204.00,227.00
             201.61,231.64 199.38,234.90 194.99,237.90
             186.53,243.65 179.67,243.11 170.00,243.00
             159.84,242.88 149.81,239.17 143.39,231.00
             137.69,223.73 137.93,211.37 140.86,203.00
             141.96,199.87 143.31,196.00 146.21,194.14
             149.76,191.85 165.96,189.74 171.00,188.92
             183.22,186.92 189.88,187.00 202.00,187.00
             202.00,187.00 201.09,178.00 201.09,178.00
             200.28,166.23 200.46,150.51 186.00,146.78
             180.51,145.05 175.46,146.28 170.00,146.78 Z
           M 418.00,212.00
           C 417.85,228.20 406.38,239.05 391.00,242.33
             386.49,243.29 377.90,243.05 373.00,243.00
             347.56,242.70 326.31,224.03 326.00,198.00
             326.00,198.00 326.00,187.00 326.00,187.00
             326.07,173.05 332.46,158.06 344.00,149.79
             365.23,134.56 407.28,137.90 420.01,163.00
             424.34,171.54 423.20,180.88 422.00,190.00
             394.80,193.61 388.18,195.00 360.00,195.00
             362.41,203.48 358.81,220.30 371.04,231.89
             385.09,245.21 411.03,231.73 412.00,212.00
             412.00,212.00 418.00,212.00 418.00,212.00 Z
           M 479.00,158.00
           C 482.94,151.69 487.93,145.79 495.00,142.93
             500.62,140.65 506.07,140.93 512.00,141.00
             526.27,141.17 542.18,150.81 546.21,165.00
             547.10,168.13 547.00,170.80 547.00,174.00
             547.00,174.00 547.00,236.00 547.00,236.00
             547.00,236.00 559.00,238.00 559.00,238.00
             559.00,238.00 559.00,242.00 559.00,242.00
             559.00,242.00 525.00,241.35 525.00,241.35
             520.99,240.09 517.59,236.88 516.01,233.00
             514.85,230.15 515.00,227.02 515.00,224.00
             514.98,209.19 515.89,178.04 513.68,165.00
             512.44,157.70 506.57,147.99 498.00,149.24
             491.17,150.24 484.05,159.63 482.53,166.00
             481.92,168.55 482.00,171.38 482.00,174.00
             482.00,174.00 482.00,236.00 482.00,236.00
             482.00,236.00 494.00,238.00 494.00,238.00
             494.00,238.00 494.00,242.00 494.00,242.00
             494.00,242.00 438.00,242.00 438.00,242.00
             438.00,242.00 438.00,238.00 438.00,238.00
             438.00,238.00 450.00,236.00 450.00,236.00
             450.00,236.00 450.00,151.00 450.00,151.00
             443.70,149.86 438.59,149.10 438.00,142.00
             449.97,142.00 465.06,139.33 473.79,149.04
             476.37,151.91 477.50,154.54 479.00,158.00 Z
           M 770.00,158.00
           C 773.94,151.69 778.93,145.79 786.00,142.93
             791.62,140.65 797.07,140.93 803.00,141.00
             817.27,141.17 833.18,150.81 837.21,165.00
             838.10,168.13 838.00,170.80 838.00,174.00
             838.00,174.00 838.00,236.00 838.00,236.00
             838.00,236.00 850.00,238.00 850.00,238.00
             850.00,238.00 850.00,242.00 850.00,242.00
             850.00,242.00 816.00,241.35 816.00,241.35
             811.99,240.09 808.59,236.88 807.01,233.00
             805.85,230.15 806.00,227.02 806.00,224.00
             805.98,209.19 806.89,178.04 804.68,165.00
             803.44,157.70 797.57,147.99 789.00,149.24
             782.17,150.24 775.05,159.63 773.53,166.00
             772.92,168.55 773.00,171.38 773.00,174.00
             773.00,174.00 773.00,236.00 773.00,236.00
             773.00,236.00 785.00,238.00 785.00,238.00
             785.00,238.00 785.00,242.00 785.00,242.00
             785.00,242.00 729.00,242.00 729.00,242.00
             729.00,242.00 729.00,238.00 729.00,238.00
             729.00,238.00 741.00,236.00 741.00,236.00
             741.00,236.00 741.00,151.00 741.00,151.00
             734.70,149.86 729.59,149.10 729.00,142.00
             740.97,142.00 756.06,139.33 764.79,149.04
             767.37,151.91 768.50,154.54 770.00,158.00 Z
           M 954.00,212.00
           C 953.85,228.20 942.38,239.05 927.00,242.33
             922.49,243.29 913.90,243.05 909.00,243.00
             883.56,242.70 862.31,224.03 862.00,198.00
             862.00,198.00 862.00,187.00 862.00,187.00
             862.07,173.05 868.46,158.06 880.00,149.79
             901.23,134.56 943.28,137.90 956.01,163.00
             960.34,171.54 959.20,180.88 958.00,190.00
             930.80,193.61 924.18,195.00 896.00,195.00
             898.41,203.48 894.81,220.30 907.04,231.89
             921.09,245.21 947.03,231.73 948.00,212.00
             948.00,212.00 954.00,212.00 954.00,212.00 Z
           M 661.00,142.00
           C 661.00,142.00 687.00,142.00 687.00,142.00
             694.81,142.01 701.65,143.39 704.35,152.00
             705.11,154.41 705.00,157.47 705.00,160.00
             705.00,160.00 705.00,236.00 705.00,236.00
             705.00,236.00 717.00,238.00 717.00,238.00
             717.00,238.00 717.00,242.00 717.00,242.00
             717.00,242.00 661.00,242.00 661.00,242.00
             661.00,242.00 661.00,238.00 661.00,238.00
             661.00,238.00 673.00,236.00 673.00,236.00
             673.00,236.00 673.00,148.00 673.00,148.00
             673.00,148.00 661.00,146.00 661.00,146.00
             661.00,146.00 661.00,142.00 661.00,142.00 Z
           M 388.00,188.00
           C 389.34,177.81 390.71,162.27 385.59,153.00
             381.93,146.38 374.08,143.18 368.22,149.15
             359.67,157.85 362.04,178.63 360.00,190.00
             360.00,190.00 377.00,188.91 377.00,188.91
             377.00,188.91 388.00,188.00 388.00,188.00 Z
           M 924.00,188.00
           C 925.34,177.81 926.71,162.27 921.59,153.00
             917.93,146.38 910.08,143.18 904.22,149.15
             895.67,157.85 898.04,178.63 896.00,190.00
             896.00,190.00 913.00,188.91 913.00,188.91
             913.00,188.91 924.00,188.00 924.00,188.00 Z
           M 202.00,191.00
           C 202.00,191.00 176.21,193.00 176.21,193.00
             173.75,202.99 169.32,222.16 176.21,230.94
             185.26,241.87 201.92,229.37 202.00,213.00
             202.00,213.00 202.00,191.00 202.00,191.00 Z" />
</svg>
